<?xml version="1.0" encoding="UTF-8"?>
<!DOCTYPE svg PUBLIC "-//W3C//DTD SVG 1.1//EN" "http://www.w3.org/Graphics/SVG/1.1/DTD/svg11.dtd">
<svg xmlns="http://www.w3.org/2000/svg" version="1.1" width="225px" height="225px" style="shape-rendering:geometricPrecision; text-rendering:geometricPrecision; image-rendering:optimizeQuality; fill-rule:evenodd; clip-rule:evenodd" xmlns:xlink="http://www.w3.org/1999/xlink">
<g><path style="opacity:1" fill="#fefefe" d="M -0.5,-0.5 C 74.5,-0.5 149.5,-0.5 224.5,-0.5C 224.5,74.5 224.5,149.5 224.5,224.5C 149.5,224.5 74.5,224.5 -0.5,224.5C -0.5,149.5 -0.5,74.5 -0.5,-0.5 Z"/></g>
<g><path style="opacity:1" fill="#787878" d="M 62.5,99.5 C 56.1667,99.5 49.8333,99.5 43.5,99.5C 43.5,100.5 43.5,101.5 43.5,102.5C 45.8333,102.5 48.1667,102.5 50.5,102.5C 50.5,108.833 50.5,115.167 50.5,121.5C 49.5104,115.69 49.1771,109.69 49.5,103.5C 47.1667,103.5 44.8333,103.5 42.5,103.5C 42.5,101.833 42.5,100.167 42.5,98.5C 49.3543,98.176 56.021,98.5093 62.5,99.5 Z"/></g>
<g><path style="opacity:1" fill="#ace9ad" d="M 129.5,108.5 C 125.833,108.5 122.167,108.5 118.5,108.5C 118.5,106.5 118.5,104.5 118.5,102.5C 122.5,102.5 126.5,102.5 130.5,102.5C 130.5,101.5 130.5,100.5 130.5,99.5C 125.167,99.5 119.833,99.5 114.5,99.5C 114.5,106.833 114.5,114.167 114.5,121.5C 113.508,114.018 113.175,106.352 113.5,98.5C 119.5,98.5 125.5,98.5 131.5,98.5C 131.5,100.167 131.5,101.833 131.5,103.5C 127.5,103.5 123.5,103.5 119.5,103.5C 119.5,104.833 119.5,106.167 119.5,107.5C 123.042,107.187 126.375,107.521 129.5,108.5 Z"/></g>
<g><path style="opacity:1" fill="#0e0e0e" d="M 27.5,98.5 C 31.5463,98.1499 35.3797,98.8166 39,100.5C 39.3152,101.908 38.9819,103.241 38,104.5C 34.0249,101.571 30.5249,101.904 27.5,105.5C 31.3975,107.867 35.5641,109.867 40,111.5C 41.5557,119.114 38.389,122.448 30.5,121.5C 28.5,121.333 26.5,121.167 24.5,121C 22.0323,119.412 21.8657,117.578 24,115.5C 27.2559,117.429 30.7559,117.929 34.5,117C 35.3366,115.989 35.67,114.822 35.5,113.5C 31.4224,112.863 27.5891,111.53 24,109.5C 21.718,104.732 22.8847,101.065 27.5,98.5 Z"/></g>
<g><path style="opacity:1" fill="#101010" d="M 62.5,99.5 C 62.5,100.833 62.5,102.167 62.5,103.5C 60.1667,103.5 57.8333,103.5 55.5,103.5C 55.5,109.5 55.5,115.5 55.5,121.5C 53.8333,121.5 52.1667,121.5 50.5,121.5C 50.5,115.167 50.5,108.833 50.5,102.5C 48.1667,102.5 45.8333,102.5 43.5,102.5C 43.5,101.5 43.5,100.5 43.5,99.5C 49.8333,99.5 56.1667,99.5 62.5,99.5 Z"/></g>
<g><path style="opacity:1" fill="#0b0b0b" d="M 72.5,99.5 C 74.7925,99.2436 76.9592,99.5769 79,100.5C 82.0381,107.409 85.2048,114.242 88.5,121C 84.1015,122.375 80.7682,121.042 78.5,117C 74.5201,115.952 71.5201,117.285 69.5,121C 67.4213,121.808 65.4213,121.641 63.5,120.5C 66.7878,113.595 69.7878,106.595 72.5,99.5 Z"/></g>
<g><path style="opacity:1" fill="#121212" d="M 88.5,98.5 C 90.1992,98.3398 91.8659,98.5065 93.5,99C 95.5431,102.253 97.7098,105.42 100,108.5C 101.833,105.5 103.667,102.5 105.5,99.5C 107.167,98.1667 108.833,98.1667 110.5,99.5C 108,103.833 105.5,108.167 103,112.5C 102.502,115.482 102.335,118.482 102.5,121.5C 100.833,121.5 99.1667,121.5 97.5,121.5C 97.6641,118.813 97.4974,116.146 97,113.5C 94.1428,108.445 91.3095,103.445 88.5,98.5 Z"/></g>
<g><path style="opacity:1" fill="#77dc76" d="M 188.5,103.5 C 188.5,105.167 188.5,106.833 188.5,108.5C 191.833,108.5 195.167,108.5 198.5,108.5C 198.5,109.833 198.5,111.167 198.5,112.5C 195.167,112.5 191.833,112.5 188.5,112.5C 188.5,114.167 188.5,115.833 188.5,117.5C 192.5,117.5 196.5,117.5 200.5,117.5C 200.5,118.833 200.5,120.167 200.5,121.5C 194.833,121.5 189.167,121.5 183.5,121.5C 183.5,114.167 183.5,106.833 183.5,99.5C 188.833,99.5 194.167,99.5 199.5,99.5C 199.5,100.5 199.5,101.5 199.5,102.5C 195.629,102.185 191.962,102.518 188.5,103.5 Z"/></g>
<g><path style="opacity:1" fill="#77dc75" d="M 129.5,108.5 C 129.5,109.833 129.5,111.167 129.5,112.5C 126.167,112.5 122.833,112.5 119.5,112.5C 119.5,114.167 119.5,115.833 119.5,117.5C 123.5,117.5 127.5,117.5 131.5,117.5C 131.5,118.833 131.5,120.167 131.5,121.5C 125.833,121.5 120.167,121.5 114.5,121.5C 114.5,114.167 114.5,106.833 114.5,99.5C 119.833,99.5 125.167,99.5 130.5,99.5C 130.5,100.5 130.5,101.5 130.5,102.5C 126.5,102.5 122.5,102.5 118.5,102.5C 118.5,104.5 118.5,106.5 118.5,108.5C 122.167,108.5 125.833,108.5 129.5,108.5 Z"/></g>
<g><path style="opacity:1" fill="#79dc78" d="M 165.5,98.5 C 169.869,97.9232 173.869,98.7565 177.5,101C 176.929,102.205 176.262,103.372 175.5,104.5C 171.882,101.718 168.548,101.884 165.5,105C 165.645,105.772 165.978,106.439 166.5,107C 170.655,107.718 174.488,109.218 178,111.5C 179.291,115.672 178.124,118.839 174.5,121C 170.5,121.667 166.5,121.667 162.5,121C 160.032,119.412 159.866,117.578 162,115.5C 165.256,117.429 168.756,117.929 172.5,117C 173.022,116.439 173.355,115.772 173.5,115C 170.059,113.088 166.392,111.421 162.5,110C 159.262,105.017 160.262,101.183 165.5,98.5 Z"/></g>
<g><path style="opacity:1" fill="#aee8ad" d="M 188.5,103.5 C 191.962,102.518 195.629,102.185 199.5,102.5C 199.5,101.5 199.5,100.5 199.5,99.5C 194.167,99.5 188.833,99.5 183.5,99.5C 183.5,106.833 183.5,114.167 183.5,121.5C 182.508,114.018 182.175,106.352 182.5,98.5C 188.5,98.5 194.5,98.5 200.5,98.5C 200.5,100.167 200.5,101.833 200.5,103.5C 196.5,103.5 192.5,103.5 188.5,103.5 Z"/></g>
<g><path style="opacity:1" fill="#e5e5e5" d="M 74.5,105.5 C 75.3764,105.369 76.0431,105.702 76.5,106.5C 77.6005,108.642 78.6005,110.808 79.5,113C 76.8333,113.667 74.1667,113.667 71.5,113C 73.2024,110.765 74.2024,108.265 74.5,105.5 Z"/></g>
<g><path style="opacity:1" fill="#7add79" d="M 143.5,98.5 C 145.467,98.2606 147.301,98.5939 149,99.5C 151.927,106.599 155.094,113.599 158.5,120.5C 156.604,121.466 154.604,121.799 152.5,121.5C 152.32,117.588 150.153,115.921 146,116.5C 141.847,115.921 139.68,117.588 139.5,121.5C 137.396,121.799 135.396,121.466 133.5,120.5C 137.034,113.221 140.367,105.888 143.5,98.5 Z"/></g>
<g><path style="opacity:1" fill="#f3fbf2" d="M 145.5,104.5 C 147.19,106.504 148.524,108.837 149.5,111.5C 147.235,112.647 144.902,112.814 142.5,112C 143.991,109.692 144.991,107.192 145.5,104.5 Z"/></g>
<g><path style="opacity:1" fill="#6e6e6e" d="M 74.5,119.5 C 75.675,119.281 76.675,119.614 77.5,120.5C 75.9483,121.798 74.9483,121.465 74.5,119.5 Z"/></g>
</svg>
